<svg width="498" height="123" viewBox="0 0 498 123" fill="none" xmlns="http://www.w3.org/2000/svg">
<path d="M61.62 0.999988C53.4367 1.0059 45.3391 2.66727 37.8145 5.88414C30.29 9.101 23.494 13.8069 17.8355 19.7186C12.1769 25.6303 7.77283 32.6256 4.88819 40.2837C2.00354 47.9417 0.697959 56.1042 1.05001 64.28C1.75683 79.505 8.14962 93.9108 18.9648 104.65C29.7799 115.389 44.2304 121.68 59.46 122.28C60.19 122.28 60.91 122.28 61.64 122.28C69.6735 122.383 77.6475 120.89 85.0994 117.887C92.5512 114.884 99.3326 110.431 105.05 104.787C110.767 99.1423 115.307 92.4187 118.405 85.006C121.504 77.5933 123.099 69.6392 123.099 61.605C123.099 53.5708 121.504 45.6167 118.405 38.204C115.307 30.7913 110.767 24.0677 105.05 18.4232C99.3326 12.7788 92.5512 8.32593 85.0994 5.323C77.6475 2.32007 69.6735 0.826853 61.64 0.929988L61.62 0.999988ZM108.32 64.1C107.765 74.7855 103.557 84.9564 96.4005 92.9109C89.2441 100.865 79.5731 106.121 69.0055 107.799C58.4379 109.477 47.6146 107.475 38.3464 102.128C29.0782 96.7809 21.9271 88.4135 18.0897 78.4253C14.2522 68.4372 13.961 57.4342 17.2649 47.257C20.5687 37.0799 27.2672 28.346 36.2396 22.5164C45.2121 16.6868 55.9143 14.1151 66.5559 15.2316C77.1975 16.3481 87.1329 21.0851 94.7 28.65C99.3069 33.2896 102.897 38.8378 105.242 44.9411C107.587 51.0445 108.635 57.5693 108.32 64.1V64.1Z" fill="white"/>
<path d="M61.68 97.93C71.0803 97.9147 80.1033 94.2302 86.8274 87.6611C93.5515 81.092 97.4455 72.1574 97.68 62.76H25.68C25.912 72.1582 29.8052 81.0943 36.5298 87.6639C43.2545 94.2335 52.2789 97.9172 61.68 97.93V97.93Z" fill="white"/>
<path d="M241.77 103.32V40.68L215.25 103.32H202.77L176.49 40.92V103.32H162.49V18.24H181.69L209.29 83.16L236.53 18.24H256.09V103.32H241.77Z" fill="white"/>
<path d="M287.85 69.84L302.85 67.56C306.21 67.08 307.17 65.4 307.17 63.36C307.17 58.44 303.81 54.48 296.17 54.48C288.85 54.48 284.77 59.16 284.17 65.04L271.45 62.16C272.53 52.08 281.65 43.08 296.05 43.08C314.05 43.08 320.89 53.28 320.89 64.92V93.92C320.853 97.0551 321.094 100.187 321.61 103.28H308.61C308.125 100.831 307.924 98.3348 308.01 95.84C305.25 100.28 299.49 105.08 290.01 105.08C277.77 105.08 270.21 96.68 270.21 87.44C270.21 77 277.89 71.28 287.85 69.84ZM307.17 79.08V76.44L291.93 78.72C287.61 79.44 284.13 81.84 284.13 86.64C284.13 90.64 287.13 94.2 292.65 94.2C300.45 94.2 307.17 90.48 307.17 79.08Z" fill="white"/>
<path d="M337.05 103.32V44.88H350.37V52.32C353.73 46.32 361.05 43.2 367.65 43.2C375.33 43.2 382.05 46.68 385.17 53.52C389.73 45.84 396.57 43.2 404.17 43.2C414.73 43.2 424.81 49.92 424.81 65.4V103.32H411.33V67.68C411.33 60.84 407.85 55.68 400.05 55.68C392.73 55.68 387.93 61.44 387.93 68.68V103.36H374.25V67.68C374.25 60.96 370.89 55.68 362.97 55.68C355.53 55.68 350.85 61.2 350.85 68.68V103.36L337.05 103.32Z" fill="white"/>
<path d="M497.73 74C497.73 92 484.89 105.08 467.37 105.08C449.85 105.08 437.13 92 437.13 74C437.13 56 449.97 43 467.37 43C484.77 43 497.73 56.16 497.73 74ZM483.73 74C483.73 61.88 476.05 55.64 467.41 55.64C458.77 55.64 451.09 61.88 451.09 74C451.09 86.12 458.89 92.6 467.41 92.6C475.93 92.6 483.69 86.28 483.69 74H483.73Z" fill="white"/>
</svg>
